<svg xmlns="http://www.w3.org/2000/svg" width="64" height="64" fill="none" viewBox="0 0 64 64"><path fill="#52503B" d="M48.704 0c3.187 0 5.86 2.602 5.963 5.932v52.032c0 3.33-2.673 6.036-5.963 6.036H15.295c-3.289 0-5.962-2.706-5.962-6.036V5.932c0-3.33 2.673-5.932 5.86-5.932h33.511Zm-.102 3.538h-33.41c-1.336 0-2.364 1.145-2.364 2.394v52.032c0 1.353 1.131 2.394 2.365 2.394h33.409c1.336 0 2.364-1.145 2.364-2.394V5.932c0-1.353-1.13-2.394-2.364-2.394Zm-5.449 24.247c1.85 0 3.495 1.561 3.495 3.539 0 1.977-1.541 3.538-3.495 3.538-1.953 0-3.495-1.561-3.495-3.538 0-1.978 1.542-3.539 3.495-3.539Z"/></svg>