<svg xmlns="http://www.w3.org/2000/svg" width="36" height="36" fill="none" viewBox="0 0 36 36"><path fill="#52503B" d="m31.252 24.02-10.601-5.552c.116-.351 0-.819-.35-1.052-.408-.351-1.049-.293-1.456.116-.117.176-.583.293-1.107.176-.466-.117-.757-.468-.816-.994-.058-.76.292-1.285 1.165-1.636.583-.234.99-.818.932-1.461V9.818c2.214-.467 3.845-2.454 3.845-4.85A4.955 4.955 0 0 0 17.913 0a4.955 4.955 0 0 0-4.952 4.968 4.946 4.946 0 0 0 3.961 4.85l.059 3.448c-1.457.76-2.272 2.046-2.098 3.624a3.38 3.38 0 0 0 .525 1.52l-10.66 5.61c-.874.409-1.457 1.227-1.69 2.162v.058C3 26.474 3 26.708 3 26.942v5.785A3.262 3.262 0 0 0 6.262 36h23.476A3.262 3.262 0 0 0 33 32.727v-5.785c0-1.286-.699-2.396-1.748-2.922ZM15.058 4.968a2.889 2.889 0 0 1 2.913-2.923 2.89 2.89 0 0 1 2.913 2.923A2.889 2.889 0 0 1 17.97 7.89a2.889 2.889 0 0 1-2.913-2.922Zm2.272 14.785.058-.058c.292.058.525.117.816.117.175 0 .35 0 .524-.059l10.719 5.61H6.553l10.777-5.61Zm12.408 14.202H6.204a1.232 1.232 0 0 1-1.223-1.228v-5.26h25.98v5.26c0 .643-.582 1.228-1.223 1.228Z"/></svg>