<svg xmlns="http://www.w3.org/2000/svg" width="36" height="34" fill="none" viewBox="0 0 36 34"><path fill="#52503B" d="M31.442 6.655h-6.254V4.603A4.109 4.109 0 0 0 21.098.5h-6.195c-2.28 0-4.091 1.876-4.091 4.103v2.052H4.558C2.045 6.655 0 8.706 0 11.226v5.745a1.05 1.05 0 0 0 1.052 1.055h.526v11.137A4.321 4.321 0 0 0 5.903 33.5h24.194a4.321 4.321 0 0 0 4.325-4.337V18.026h.526A1.05 1.05 0 0 0 36 16.97v-5.745c0-2.52-2.045-4.571-4.558-4.571ZM12.857 4.603c0-1.114.935-2.051 2.046-2.051h6.136c1.11 0 2.045.937 2.045 2.051v2.052H12.857V4.603ZM2.104 11.226c0-1.348 1.11-2.52 2.513-2.52H31.5c1.344 0 2.513 1.114 2.513 2.52v4.748H2.103v-4.748Zm30.273 17.878a2.285 2.285 0 0 1-2.28 2.286H5.903a2.285 2.285 0 0 1-2.28-2.286V17.967h7.189v3.634a1.05 1.05 0 0 0 1.052 1.055 1.05 1.05 0 0 0 1.052-1.055v-3.634H23.2v3.634a1.05 1.05 0 0 0 1.052 1.055 1.05 1.05 0 0 0 1.052-1.055v-3.634h7.188v11.137h-.116Z"/></svg>