<svg xmlns="http://www.w3.org/2000/svg" width="36" height="36" fill="none" viewBox="0 0 36 36"><path fill="#52503B" d="M26.613 0C30.07 0 32.941 2.81 33 6.38v12.586a1.85 1.85 0 0 1-1.875 1.873h-1.23v12.468c0 1.464-1.23 2.693-2.696 2.693H25.5c-1.465 0-2.695-1.23-2.695-2.693V1.873A1.85 1.85 0 0 1 24.68 0h1.933ZM9.328.059a1.05 1.05 0 0 1 1.055 1.053v8.956h3.281V1.171A1.05 1.05 0 0 1 14.72.117c.586 0 .996.468 1.054.995v14.986c0 .878-.644 1.521-1.523 1.521h-1.348v15.63c0 1.463-1.23 2.692-2.695 2.692h-1.64c-1.465 0-2.696-1.229-2.696-2.692V17.56H4.523c-.878 0-1.523-.644-1.523-1.522V1.112C3 .585 3.41.06 3.996.06a1.05 1.05 0 0 1 1.055 1.053v8.898h3.222V1.112A1.05 1.05 0 0 1 9.328.06Zm18.516 20.78h-2.989v12.468a.65.65 0 0 0 .645.644h1.7c.35 0 .644-.351.644-.702v-12.41Zm-16.992-3.22h-2.93v15.688a.65.65 0 0 0 .644.644h1.641a.65.65 0 0 0 .645-.644V17.62ZM26.555 2.05h-1.758V18.79h6.094V6.38c0-2.4-1.934-4.331-4.336-4.331Zm-12.832 10.01H5.05v3.512h8.672v-3.512Z"/></svg>