<svg xmlns="http://www.w3.org/2000/svg" width="36" height="16" fill="none" viewBox="0 0 36 16"><path fill="#52503B" d="M18.029.5C7.96.5 0 4.734 0 10.056c0 .484.059 1.029.234 1.573a3.524 3.524 0 0 0 2.283 2.298c2.985.968 8.897 1.573 15.453 1.573 6.556 0 12.469-.605 15.454-1.573a3.568 3.568 0 0 0 2.283-2.237l.058-.121c.117-.545.235-1.029.235-1.513C36.058 4.673 28.097.5 18.029.5Zm15.863 10.464v.06a1.314 1.314 0 0 1-.937.908c-2.81.907-8.663 1.451-14.926 1.451S5.912 12.778 3.16 11.932c-.468-.182-.82-.484-.937-.908-.117-.302-.117-.665-.117-.967 0-2.117 2.049-4.113 5.268-5.505.586 2.601 2.4 4.476 4.566 4.476.586 0 1.054-.484 1.054-1.088 0-.605-.468-1.09-1.054-1.09-1.229 0-2.341-1.27-2.634-3.084a28.613 28.613 0 0 1 5.912-1.15c.351 2.965 2.107 6.352 4.683 6.352.585 0 1.054-.484 1.054-1.089s-.469-1.089-1.054-1.089c-1.112 0-2.341-2.117-2.634-4.355h.76c1.757 0 3.513.121 5.094.424.117 3.326 2.224 6.048 4.74 6.048.586 0 1.055-.484 1.055-1.088 0-.605-.469-1.09-1.054-1.09-1.346 0-2.459-1.572-2.693-3.507 5.151 1.27 8.78 3.81 8.78 6.653.06.484 0 .786-.058 1.089Z"/></svg>