<svg xmlns="http://www.w3.org/2000/svg" width="36" height="36" fill="none" viewBox="0 0 36 36"><path fill="#52503B" d="M33.136 0c1.52 0 2.806 1.23 2.864 2.751v30.44C36 34.77 34.714 36 33.195 36H2.805A2.808 2.808 0 0 1 0 33.19V2.751A2.746 2.746 0 0 1 2.747 0h30.39Zm0 1.99H2.746c-.408 0-.759.351-.759.761v30.44c0 .409.35.76.76.76h30.39c.408 0 .76-.351.76-.76V2.75c0-.41-.352-.76-.76-.76ZM22.442 29.62c.584 0 1.052.468 1.052 1.053 0 .586-.468 1.054-1.052 1.054h-.877a1.048 1.048 0 0 1-1.052-1.054c0-.585.467-1.053 1.052-1.053h.877Zm5.435 0c.584 0 1.052.468 1.052 1.053 0 .586-.468 1.054-1.052 1.054H27a1.048 1.048 0 0 1-1.052-1.054c0-.585.468-1.053 1.052-1.053h.877Zm-17.3-11.24c2.456 0 4.5 2.05 4.5 4.508s-2.044 4.507-4.5 4.507c-2.454 0-4.5-2.049-4.5-4.507 0-2.459 2.046-4.508 4.5-4.508Zm14.728 0c2.513 0 4.5 2.05 4.5 4.508s-2.045 4.507-4.5 4.507c-2.454 0-4.5-2.049-4.5-4.507 0-2.459 2.046-4.508 4.5-4.508Zm-14.727 2.05a2.471 2.471 0 0 0-2.455 2.458 2.471 2.471 0 0 0 2.455 2.458 2.471 2.471 0 0 0 2.455-2.458 2.471 2.471 0 0 0-2.455-2.459Zm14.727 0a2.471 2.471 0 0 0-2.454 2.458 2.471 2.471 0 0 0 2.454 2.458 2.471 2.471 0 0 0 2.455-2.458 2.471 2.471 0 0 0-2.455-2.459ZM10.578 5.326c2.455 0 4.5 1.99 4.5 4.507 0 2.459-2.045 4.508-4.5 4.508s-4.5-2.05-4.5-4.508 2.045-4.507 4.5-4.507Zm14.727 0c2.513 0 4.5 1.99 4.5 4.507 0 2.459-2.045 4.508-4.5 4.508-2.454 0-4.5-2.05-4.5-4.508s2.046-4.507 4.5-4.507ZM10.578 7.376a2.471 2.471 0 0 0-2.455 2.458 2.471 2.471 0 0 0 2.455 2.459 2.471 2.471 0 0 0 2.455-2.459 2.471 2.471 0 0 0-2.455-2.458Zm14.727 0a2.471 2.471 0 0 0-2.454 2.458 2.471 2.471 0 0 0 2.454 2.459 2.471 2.471 0 0 0 2.455-2.459 2.471 2.471 0 0 0-2.455-2.458Z"/></svg>